{
    "asset" : {
        "generator" : "Khronos glTF Blender I/O v3.2.43",
        "version" : "2.0"
    },
    "scene" : 0,
    "scenes" : [
        {
            "name" : "Scene",
            "nodes" : [
                0
            ]
        }
    ],
    "nodes" : [
        {
            "mesh" : 0,
            "name" : "Wi-Fi Info Logo",
            "rotation" : [
                0.7071068286895752,
                0,
                0,
                0.7071068286895752
            ],
            "scale" : [
                200,
                1,
                200
            ]
        }
    ],
    "materials" : [
        {
            "doubleSided" : true,
            "name" : "Material.001",
            "pbrMetallicRoughness" : {
                "baseColorFactor" : [
                    0.040914300829172134,
                    0.3613062798976898,
                    1,
                    1
                ],
                "metallicFactor" : 0
            }
        }
    ],
    "meshes" : [
        {
            "name" : "path_0",
            "primitives" : [
                {
                    "attributes" : {
                        "POSITION" : 0,
                        "NORMAL" : 1,
                        "TEXCOORD_0" : 2
                    },
                    "indices" : 3,
                    "material" : 0
                }
            ]
        }
    ],
    "accessors" : [
        {
            "bufferView" : 0,
            "componentType" : 5126,
            "count" : 1868,
            "max" : [
                0.014673242345452309,
                0.25,
                0.01347983255982399
            ],
            "min" : [
                -0.014673236757516861,
                -0.2499999850988388,
                -0.009158361703157425
            ],
            "type" : "VEC3"
        },
        {
            "bufferView" : 1,
            "componentType" : 5126,
            "count" : 1868,
            "type" : "VEC3"
        },
        {
            "bufferView" : 2,
            "componentType" : 5126,
            "count" : 1868,
            "type" : "VEC2"
        },
        {
            "bufferView" : 3,
            "componentType" : 5123,
            "count" : 2652,
            "type" : "SCALAR"
        }
    ],
    "bufferViews" : [
        {
            "buffer" : 0,
            "byteLength" : 22416,
            "byteOffset" : 0
        },
        {
            "buffer" : 0,
            "byteLength" : 22416,
            "byteOffset" : 22416
        },
        {
            "buffer" : 0,
            "byteLength" : 14944,
            "byteOffset" : 44832
        },
        {
            "buffer" : 0,
            "byteLength" : 5304,
            "byteOffset" : 59776
        }
    ],
    "buffers" : [
        {
            "byteLength" : 65080,
            "uri" : "data:application/octet-stream;base64,"
        }
    ]
}
